<svg width="48" height="48" viewBox="0 0 48 48" fill="none" xmlns="http://www.w3.org/2000/svg">
<path d="M16.2117 2.95781C22.6069 -1.21528 31.0699 -0.262369 36.4158 5.16582L36.6683 5.42803L36.6693 5.42949L41.1815 10.2293C43.674 12.8724 43.1857 17.1143 40.1155 19.0613L39.8787 19.2142L40.3665 19.7347L40.369 19.7371C45.9888 25.7543 44.7949 35.3967 37.8797 39.8787L29.3363 45.4471C29.3342 45.4484 29.332 45.4496 29.3299 45.451C28.774 45.8103 28.1998 46.1248 27.6121 46.3948C22.3027 48.8348 15.9541 47.6173 11.8963 43.2552L5.85822 36.785C3.39887 34.1765 3.91779 29.9492 6.95197 28.0101L8.46223 27.0301L7.43537 25.931C4.89218 23.2129 3.86813 19.6102 4.10822 16.2913C4.33943 13.0956 5.76989 9.92453 8.46027 8.03301L8.72443 7.85381L16.2103 2.95928L16.2117 2.95781ZM9.17219 31.4334C9.16638 31.4372 9.16045 31.4409 9.15461 31.4446C8.26852 32.0066 8.12275 33.2396 8.82648 33.9861C8.82885 33.9886 8.83146 33.9914 8.83381 33.9939L14.8817 40.4739L14.8841 40.4764C17.7244 43.5296 22.1462 44.383 25.845 42.7156C28.1335 41.442 29.2312 38.5713 28.1571 36.0638L24.6688 38.3035C24.6579 38.3105 24.647 38.3173 24.6361 38.324C22.5841 39.5868 19.9364 39.2807 18.2513 37.5154C18.2461 37.51 18.2408 37.5043 18.2357 37.4988L11.2904 30.0594L9.17219 31.4334ZM18.0135 16.9808C18.0058 16.9858 17.9978 16.991 17.9901 16.9959C17.5107 17.3011 17.4107 18.0077 17.8104 18.4427L29.1863 30.6346C29.1888 30.6372 29.1917 30.6402 29.1942 30.6429C29.2312 30.683 29.267 30.7242 29.3021 30.7659L30.137 31.7327C31.9976 33.7576 32.7513 36.1326 32.6551 38.4134L35.6522 36.4607L35.6575 36.4573C40.4499 33.354 41.2699 26.6797 37.387 22.5223L36.4007 21.47L33.9886 23.0345C33.9853 23.0366 33.9821 23.0387 33.9788 23.0408C31.9429 24.3438 29.2816 24.0013 27.6112 22.2513C27.6069 22.2468 27.6027 22.2421 27.5985 22.2376L20.8988 15.0887L18.0135 16.9808ZM17.8319 11.8934C16.2136 10.1102 13.3606 9.705 10.9554 11.2703L10.9549 11.2698C10.9543 11.2702 10.9536 11.2704 10.9529 11.2708L10.9534 11.2713C9.39861 12.2853 8.34693 14.2446 8.17756 16.5857C8.01496 18.8334 8.69234 21.1981 10.2615 22.9744L10.4163 23.1443L10.4183 23.1463L21.2073 34.7029C21.5384 35.0453 22.0556 35.1207 22.4974 34.8489L25.6497 32.825L14.8275 21.2264L14.824 21.2229C12.7378 18.9763 13.1103 15.2853 15.7762 13.5687L18.0252 12.0936L17.8821 11.9466C17.8652 11.9292 17.8482 11.9114 17.8319 11.8934ZM33.6976 8.2249C29.7146 3.99573 23.2729 3.22271 18.4417 6.37529L17.6414 6.89824C18.8218 7.38139 19.909 8.12175 20.8216 9.11699L22.6756 11.0184L22.7034 11.0477L30.5628 19.4339L30.6292 19.4979C30.9694 19.7985 31.4333 19.8221 31.7742 19.6067L37.9129 15.6268L37.9305 15.6155C38.7947 15.0673 38.9796 13.8402 38.2117 13.0271L38.2083 13.0237L33.6976 8.2249Z" fill="#090A0B"/>
</svg>
